<svg width="99" height="3" viewBox="0 0 99 3" fill="none" xmlns="http://www.w3.org/2000/svg">
<path d="M0.984375 1.33008C0.984375 1.11589 1.05046 0.935872 1.18262 0.790039C1.31934 0.639648 1.5153 0.564453 1.77051 0.564453C2.02572 0.564453 2.2194 0.639648 2.35156 0.790039C2.48828 0.935872 2.55664 1.11589 2.55664 1.33008C2.55664 1.53971 2.48828 1.71745 2.35156 1.86328C2.2194 2.00911 2.02572 2.08203 1.77051 2.08203C1.5153 2.08203 1.31934 2.00911 1.18262 1.86328C1.05046 1.71745 0.984375 1.53971 0.984375 1.33008ZM4.67578 1.33008C4.67578 1.11589 4.74186 0.935872 4.87402 0.790039C5.01074 0.639648 5.20671 0.564453 5.46191 0.564453C5.71712 0.564453 5.91081 0.639648 6.04297 0.790039C6.17969 0.935872 6.24805 1.11589 6.24805 1.33008C6.24805 1.53971 6.17969 1.71745 6.04297 1.86328C5.91081 2.00911 5.71712 2.08203 5.46191 2.08203C5.20671 2.08203 5.01074 2.00911 4.87402 1.86328C4.74186 1.71745 4.67578 1.53971 4.67578 1.33008ZM8.36719 1.33008C8.36719 1.11589 8.43327 0.935872 8.56543 0.790039C8.70215 0.639648 8.89811 0.564453 9.15332 0.564453C9.40853 0.564453 9.60221 0.639648 9.73438 0.790039C9.87109 0.935872 9.93945 1.11589 9.93945 1.33008C9.93945 1.53971 9.87109 1.71745 9.73438 1.86328C9.60221 2.00911 9.40853 2.08203 9.15332 2.08203C8.89811 2.08203 8.70215 2.00911 8.56543 1.86328C8.43327 1.71745 8.36719 1.53971 8.36719 1.33008ZM12.0586 1.33008C12.0586 1.11589 12.1247 0.935872 12.2568 0.790039C12.3936 0.639648 12.5895 0.564453 12.8447 0.564453C13.0999 0.564453 13.2936 0.639648 13.4258 0.790039C13.5625 0.935872 13.6309 1.11589 13.6309 1.33008C13.6309 1.53971 13.5625 1.71745 13.4258 1.86328C13.2936 2.00911 13.0999 2.08203 12.8447 2.08203C12.5895 2.08203 12.3936 2.00911 12.2568 1.86328C12.1247 1.71745 12.0586 1.53971 12.0586 1.33008ZM15.75 1.33008C15.75 1.11589 15.8161 0.935872 15.9482 0.790039C16.085 0.639648 16.2809 0.564453 16.5361 0.564453C16.7913 0.564453 16.985 0.639648 17.1172 0.790039C17.2539 0.935872 17.3223 1.11589 17.3223 1.33008C17.3223 1.53971 17.2539 1.71745 17.1172 1.86328C16.985 2.00911 16.7913 2.08203 16.5361 2.08203C16.2809 2.08203 16.085 2.00911 15.9482 1.86328C15.8161 1.71745 15.75 1.53971 15.75 1.33008ZM19.4414 1.33008C19.4414 1.11589 19.5075 0.935872 19.6396 0.790039C19.7764 0.639648 19.9723 0.564453 20.2275 0.564453C20.4827 0.564453 20.6764 0.639648 20.8086 0.790039C20.9453 0.935872 21.0137 1.11589 21.0137 1.33008C21.0137 1.53971 20.9453 1.71745 20.8086 1.86328C20.6764 2.00911 20.4827 2.08203 20.2275 2.08203C19.9723 2.08203 19.7764 2.00911 19.6396 1.86328C19.5075 1.71745 19.4414 1.53971 19.4414 1.33008ZM23.1328 1.33008C23.1328 1.11589 23.1989 0.935872 23.3311 0.790039C23.4678 0.639648 23.6637 0.564453 23.9189 0.564453C24.1742 0.564453 24.3678 0.639648 24.5 0.790039C24.6367 0.935872 24.7051 1.11589 24.7051 1.33008C24.7051 1.53971 24.6367 1.71745 24.5 1.86328C24.3678 2.00911 24.1742 2.08203 23.9189 2.08203C23.6637 2.08203 23.4678 2.00911 23.3311 1.86328C23.1989 1.71745 23.1328 1.53971 23.1328 1.33008ZM26.8242 1.33008C26.8242 1.11589 26.8903 0.935872 27.0225 0.790039C27.1592 0.639648 27.3551 0.564453 27.6104 0.564453C27.8656 0.564453 28.0592 0.639648 28.1914 0.790039C28.3281 0.935872 28.3965 1.11589 28.3965 1.33008C28.3965 1.53971 28.3281 1.71745 28.1914 1.86328C28.0592 2.00911 27.8656 2.08203 27.6104 2.08203C27.3551 2.08203 27.1592 2.00911 27.0225 1.86328C26.8903 1.71745 26.8242 1.53971 26.8242 1.33008ZM30.5156 1.33008C30.5156 1.11589 30.5817 0.935872 30.7139 0.790039C30.8506 0.639648 31.0465 0.564453 31.3018 0.564453C31.557 0.564453 31.7507 0.639648 31.8828 0.790039C32.0195 0.935872 32.0879 1.11589 32.0879 1.33008C32.0879 1.53971 32.0195 1.71745 31.8828 1.86328C31.7507 2.00911 31.557 2.08203 31.3018 2.08203C31.0465 2.08203 30.8506 2.00911 30.7139 1.86328C30.5817 1.71745 30.5156 1.53971 30.5156 1.33008ZM34.207 1.33008C34.207 1.11589 34.2731 0.935872 34.4053 0.790039C34.542 0.639648 34.738 0.564453 34.9932 0.564453C35.2484 0.564453 35.4421 0.639648 35.5742 0.790039C35.7109 0.935872 35.7793 1.11589 35.7793 1.33008C35.7793 1.53971 35.7109 1.71745 35.5742 1.86328C35.4421 2.00911 35.2484 2.08203 34.9932 2.08203C34.738 2.08203 34.542 2.00911 34.4053 1.86328C34.2731 1.71745 34.207 1.53971 34.207 1.33008ZM37.8984 1.33008C37.8984 1.11589 37.9645 0.935872 38.0967 0.790039C38.2334 0.639648 38.4294 0.564453 38.6846 0.564453C38.9398 0.564453 39.1335 0.639648 39.2656 0.790039C39.4023 0.935872 39.4707 1.11589 39.4707 1.33008C39.4707 1.53971 39.4023 1.71745 39.2656 1.86328C39.1335 2.00911 38.9398 2.08203 38.6846 2.08203C38.4294 2.08203 38.2334 2.00911 38.0967 1.86328C37.9645 1.71745 37.8984 1.53971 37.8984 1.33008ZM41.5898 1.33008C41.5898 1.11589 41.6559 0.935872 41.7881 0.790039C41.9248 0.639648 42.1208 0.564453 42.376 0.564453C42.6312 0.564453 42.8249 0.639648 42.957 0.790039C43.0938 0.935872 43.1621 1.11589 43.1621 1.33008C43.1621 1.53971 43.0938 1.71745 42.957 1.86328C42.8249 2.00911 42.6312 2.08203 42.376 2.08203C42.1208 2.08203 41.9248 2.00911 41.7881 1.86328C41.6559 1.71745 41.5898 1.53971 41.5898 1.33008ZM45.2812 1.33008C45.2812 1.11589 45.3473 0.935872 45.4795 0.790039C45.6162 0.639648 45.8122 0.564453 46.0674 0.564453C46.3226 0.564453 46.5163 0.639648 46.6484 0.790039C46.7852 0.935872 46.8535 1.11589 46.8535 1.33008C46.8535 1.53971 46.7852 1.71745 46.6484 1.86328C46.5163 2.00911 46.3226 2.08203 46.0674 2.08203C45.8122 2.08203 45.6162 2.00911 45.4795 1.86328C45.3473 1.71745 45.2812 1.53971 45.2812 1.33008ZM48.9727 1.33008C48.9727 1.11589 49.0387 0.935872 49.1709 0.790039C49.3076 0.639648 49.5036 0.564453 49.7588 0.564453C50.014 0.564453 50.2077 0.639648 50.3398 0.790039C50.4766 0.935872 50.5449 1.11589 50.5449 1.33008C50.5449 1.53971 50.4766 1.71745 50.3398 1.86328C50.2077 2.00911 50.014 2.08203 49.7588 2.08203C49.5036 2.08203 49.3076 2.00911 49.1709 1.86328C49.0387 1.71745 48.9727 1.53971 48.9727 1.33008ZM52.6641 1.33008C52.6641 1.11589 52.7301 0.935872 52.8623 0.790039C52.999 0.639648 53.195 0.564453 53.4502 0.564453C53.7054 0.564453 53.8991 0.639648 54.0312 0.790039C54.168 0.935872 54.2363 1.11589 54.2363 1.33008C54.2363 1.53971 54.168 1.71745 54.0312 1.86328C53.8991 2.00911 53.7054 2.08203 53.4502 2.08203C53.195 2.08203 52.999 2.00911 52.8623 1.86328C52.7301 1.71745 52.6641 1.53971 52.6641 1.33008ZM56.3555 1.33008C56.3555 1.11589 56.4215 0.935872 56.5537 0.790039C56.6904 0.639648 56.8864 0.564453 57.1416 0.564453C57.3968 0.564453 57.5905 0.639648 57.7227 0.790039C57.8594 0.935872 57.9277 1.11589 57.9277 1.33008C57.9277 1.53971 57.8594 1.71745 57.7227 1.86328C57.5905 2.00911 57.3968 2.08203 57.1416 2.08203C56.8864 2.08203 56.6904 2.00911 56.5537 1.86328C56.4215 1.71745 56.3555 1.53971 56.3555 1.33008ZM60.0469 1.33008C60.0469 1.11589 60.113 0.935872 60.2451 0.790039C60.3818 0.639648 60.5778 0.564453 60.833 0.564453C61.0882 0.564453 61.2819 0.639648 61.4141 0.790039C61.5508 0.935872 61.6191 1.11589 61.6191 1.33008C61.6191 1.53971 61.5508 1.71745 61.4141 1.86328C61.2819 2.00911 61.0882 2.08203 60.833 2.08203C60.5778 2.08203 60.3818 2.00911 60.2451 1.86328C60.113 1.71745 60.0469 1.53971 60.0469 1.33008ZM63.7383 1.33008C63.7383 1.11589 63.8044 0.935872 63.9365 0.790039C64.0732 0.639648 64.2692 0.564453 64.5244 0.564453C64.7796 0.564453 64.9733 0.639648 65.1055 0.790039C65.2422 0.935872 65.3105 1.11589 65.3105 1.33008C65.3105 1.53971 65.2422 1.71745 65.1055 1.86328C64.9733 2.00911 64.7796 2.08203 64.5244 2.08203C64.2692 2.08203 64.0732 2.00911 63.9365 1.86328C63.8044 1.71745 63.7383 1.53971 63.7383 1.33008ZM67.4297 1.33008C67.4297 1.11589 67.4958 0.935872 67.6279 0.790039C67.7646 0.639648 67.9606 0.564453 68.2158 0.564453C68.471 0.564453 68.6647 0.639648 68.7969 0.790039C68.9336 0.935872 69.002 1.11589 69.002 1.33008C69.002 1.53971 68.9336 1.71745 68.7969 1.86328C68.6647 2.00911 68.471 2.08203 68.2158 2.08203C67.9606 2.08203 67.7646 2.00911 67.6279 1.86328C67.4958 1.71745 67.4297 1.53971 67.4297 1.33008ZM71.1211 1.33008C71.1211 1.11589 71.1872 0.935872 71.3193 0.790039C71.4561 0.639648 71.652 0.564453 71.9072 0.564453C72.1624 0.564453 72.3561 0.639648 72.4883 0.790039C72.625 0.935872 72.6934 1.11589 72.6934 1.33008C72.6934 1.53971 72.625 1.71745 72.4883 1.86328C72.3561 2.00911 72.1624 2.08203 71.9072 2.08203C71.652 2.08203 71.4561 2.00911 71.3193 1.86328C71.1872 1.71745 71.1211 1.53971 71.1211 1.33008ZM74.8125 1.33008C74.8125 1.11589 74.8786 0.935872 75.0107 0.790039C75.1475 0.639648 75.3434 0.564453 75.5986 0.564453C75.8538 0.564453 76.0475 0.639648 76.1797 0.790039C76.3164 0.935872 76.3848 1.11589 76.3848 1.33008C76.3848 1.53971 76.3164 1.71745 76.1797 1.86328C76.0475 2.00911 75.8538 2.08203 75.5986 2.08203C75.3434 2.08203 75.1475 2.00911 75.0107 1.86328C74.8786 1.71745 74.8125 1.53971 74.8125 1.33008ZM78.5039 1.33008C78.5039 1.11589 78.57 0.935872 78.7021 0.790039C78.8389 0.639648 79.0348 0.564453 79.29 0.564453C79.5452 0.564453 79.7389 0.639648 79.8711 0.790039C80.0078 0.935872 80.0762 1.11589 80.0762 1.33008C80.0762 1.53971 80.0078 1.71745 79.8711 1.86328C79.7389 2.00911 79.5452 2.08203 79.29 2.08203C79.0348 2.08203 78.8389 2.00911 78.7021 1.86328C78.57 1.71745 78.5039 1.53971 78.5039 1.33008ZM82.1953 1.33008C82.1953 1.11589 82.2614 0.935872 82.3936 0.790039C82.5303 0.639648 82.7262 0.564453 82.9814 0.564453C83.2367 0.564453 83.4303 0.639648 83.5625 0.790039C83.6992 0.935872 83.7676 1.11589 83.7676 1.33008C83.7676 1.53971 83.6992 1.71745 83.5625 1.86328C83.4303 2.00911 83.2367 2.08203 82.9814 2.08203C82.7262 2.08203 82.5303 2.00911 82.3936 1.86328C82.2614 1.71745 82.1953 1.53971 82.1953 1.33008ZM85.8867 1.33008C85.8867 1.11589 85.9528 0.935872 86.085 0.790039C86.2217 0.639648 86.4176 0.564453 86.6729 0.564453C86.9281 0.564453 87.1217 0.639648 87.2539 0.790039C87.3906 0.935872 87.459 1.11589 87.459 1.33008C87.459 1.53971 87.3906 1.71745 87.2539 1.86328C87.1217 2.00911 86.9281 2.08203 86.6729 2.08203C86.4176 2.08203 86.2217 2.00911 86.085 1.86328C85.9528 1.71745 85.8867 1.53971 85.8867 1.33008ZM89.5781 1.33008C89.5781 1.11589 89.6442 0.935872 89.7764 0.790039C89.9131 0.639648 90.109 0.564453 90.3643 0.564453C90.6195 0.564453 90.8132 0.639648 90.9453 0.790039C91.082 0.935872 91.1504 1.11589 91.1504 1.33008C91.1504 1.53971 91.082 1.71745 90.9453 1.86328C90.8132 2.00911 90.6195 2.08203 90.3643 2.08203C90.109 2.08203 89.9131 2.00911 89.7764 1.86328C89.6442 1.71745 89.5781 1.53971 89.5781 1.33008ZM93.2695 1.33008C93.2695 1.11589 93.3356 0.935872 93.4678 0.790039C93.6045 0.639648 93.8005 0.564453 94.0557 0.564453C94.3109 0.564453 94.5046 0.639648 94.6367 0.790039C94.7734 0.935872 94.8418 1.11589 94.8418 1.33008C94.8418 1.53971 94.7734 1.71745 94.6367 1.86328C94.5046 2.00911 94.3109 2.08203 94.0557 2.08203C93.8005 2.08203 93.6045 2.00911 93.4678 1.86328C93.3356 1.71745 93.2695 1.53971 93.2695 1.33008ZM96.9609 1.33008C96.9609 1.11589 97.027 0.935872 97.1592 0.790039C97.2959 0.639648 97.4919 0.564453 97.7471 0.564453C98.0023 0.564453 98.196 0.639648 98.3281 0.790039C98.4648 0.935872 98.5332 1.11589 98.5332 1.33008C98.5332 1.53971 98.4648 1.71745 98.3281 1.86328C98.196 2.00911 98.0023 2.08203 97.7471 2.08203C97.4919 2.08203 97.2959 2.00911 97.1592 1.86328C97.027 1.71745 96.9609 1.53971 96.9609 1.33008Z" fill="#1F2528"/>
</svg>
