<svg width="36" height="36" viewBox="0 0 36 36" fill="none" xmlns="http://www.w3.org/2000/svg">
<path d="M10.5 16.5L16.5 3C17.6935 3 18.8381 3.47411 19.682 4.31802C20.5259 5.16193 21 6.30653 21 7.5V13.5H29.49C29.9249 13.4951 30.3556 13.5848 30.7524 13.7628C31.1491 13.9409 31.5024 14.2031 31.7878 14.5313C32.0732 14.8594 32.2838 15.2457 32.405 15.6634C32.5263 16.081 32.5553 16.52 32.49 16.95L30.42 30.45C30.3115 31.1654 29.9482 31.8174 29.3969 32.286C28.8456 32.7546 28.1435 33.0082 27.42 33H10.5M10.5 16.5V33M10.5 16.5H6C5.20435 16.5 4.44129 16.8161 3.87868 17.3787C3.31607 17.9413 3 18.7044 3 19.5V30C3 30.7956 3.31607 31.5587 3.87868 32.1213C4.44129 32.6839 5.20435 33 6 33H10.5" stroke="white" stroke-width="2" stroke-linecap="round" stroke-linejoin="round"/>
</svg>
